<svg width="24" height="25" viewBox="0 0 24 25" fill="none" xmlns="http://www.w3.org/2000/svg">
<g clip-path="url(#clip0_118_957)">
<path d="M12.0001 0.500122C5.38303 0.500122 0 5.88348 0 12.5005C0.000556961 19.1169 5.38381 24.4999 12.0001 24.4999C18.6169 24.4999 24.0001 19.117 24.0001 12.5004C24 5.88348 18.6169 0.500122 12.0001 0.500122ZM12.0001 2.171C14.453 2.171 16.7085 3.03106 18.4822 4.46479L3.96478 18.9821C2.53128 17.2085 1.67111 14.9531 1.67088 12.5004C1.67088 6.80481 6.30457 2.171 12.0001 2.171ZM12.0001 22.829C9.35806 22.829 6.94497 21.8314 5.11635 20.1937L19.6937 5.61636C21.3315 7.44498 22.3291 9.85829 22.3291 12.5005C22.3291 18.1957 17.6954 22.829 12.0001 22.829Z" fill="#DCFC53"/>
</g>
<defs>
<clipPath id="clip0_118_957">
<rect width="24" height="24" fill="white" transform="translate(0 0.5)"/>
</clipPath>
</defs>
</svg>
