<svg width="22" height="24" viewBox="0 0 22 24" fill="none" xmlns="http://www.w3.org/2000/svg">
<path fill-rule="evenodd" clip-rule="evenodd" d="M9.382 3.675C6.0175 4.4145 3.5 7.4135 3.5 11V14.343C3.50006 14.8026 3.40957 15.2578 3.2337 15.6825C3.05783 16.1071 2.80002 16.493 2.475 16.818L1.3535 17.9395C1.1433 18.1491 1.00005 18.4164 0.941925 18.7075C0.883797 18.9986 0.913403 19.3004 1.02699 19.5746C1.14058 19.8488 1.33303 20.0832 1.57996 20.2479C1.82688 20.4127 2.11716 20.5004 2.414 20.5H7.5355C7.7785 22.1955 9.238 23.5 11 23.5C12.762 23.5 14.2215 22.1955 14.4645 20.5H19.586C19.8826 20.4999 20.1726 20.4119 20.4192 20.2471C20.6658 20.0823 20.858 19.848 20.9715 19.574C21.085 19.2999 21.1147 18.9984 21.0569 18.7075C20.999 18.4165 20.8562 18.1493 20.6465 17.9395L19.525 16.818C19.2 16.493 18.9422 16.1071 18.7663 15.6825C18.5904 15.2578 18.4999 14.8026 18.5 14.343V11C18.4999 9.29185 17.9167 7.63491 16.847 6.30322C15.7772 4.97153 14.285 4.04487 12.617 3.6765C12.8338 3.37812 12.9639 3.02561 12.993 2.65792C13.022 2.29022 12.9488 1.92166 12.7815 1.59296C12.6141 1.26426 12.3592 0.988222 12.0448 0.79534C11.7304 0.602459 11.3688 0.500247 11 0.5C10.6313 0.500263 10.2699 0.6024 9.95562 0.795133C9.64133 0.987866 9.38642 1.2637 9.21903 1.59218C9.05163 1.92066 8.97827 2.289 9.00703 2.65655C9.03578 3.0241 9.16555 3.37656 9.382 3.675ZM8.55 20.5C8.782 21.6405 9.7915 22.5 11 22.5C12.2085 22.5 13.218 21.6405 13.45 20.5H8.55ZM17.5 11V14.343C17.5 14.934 17.6164 15.5191 17.8425 16.0651C18.0687 16.6111 18.4001 17.1071 18.818 17.525L19.9395 18.6465C20.0094 18.7164 20.057 18.8055 20.0763 18.9025C20.0956 18.9995 20.0857 19.1 20.0478 19.1913C20.01 19.2827 19.9459 19.3608 19.8637 19.4157C19.7815 19.4706 19.6849 19.5 19.586 19.5H2.414C2.31513 19.5 2.21848 19.4706 2.13627 19.4157C2.05407 19.3608 1.99 19.2827 1.95216 19.1913C1.91433 19.1 1.90443 18.9995 1.92371 18.9025C1.94299 18.8055 1.9906 18.7164 2.0605 18.6465L3.182 17.525C3.59986 17.1071 3.93133 16.6111 4.15747 16.0651C4.38361 15.5191 4.50001 14.934 4.5 14.343V11C4.5 7.41 7.41 4.5 11 4.5C12.7239 4.5 14.3772 5.18482 15.5962 6.40381C16.8152 7.62279 17.5 9.27609 17.5 11ZM11 1.5C11.1314 1.50003 11.2614 1.52594 11.3828 1.57624C11.5041 1.62653 11.6144 1.70024 11.7072 1.79314C11.8001 1.88605 11.8737 1.99633 11.924 2.1177C11.9742 2.23907 12 2.36915 12 2.5005C12 2.63185 11.9741 2.76192 11.9238 2.88326C11.8735 3.0046 11.7998 3.11485 11.7069 3.20771C11.614 3.30057 11.5037 3.37422 11.3823 3.42446C11.2609 3.47469 11.1309 3.50053 10.9995 3.5005C10.7342 3.50043 10.4798 3.39499 10.2923 3.20736C10.1048 3.01973 9.99943 2.76528 9.9995 2.5C9.99957 2.23472 10.105 1.98033 10.2926 1.79279C10.4803 1.60525 10.7347 1.49993 11 1.5Z" fill="#F7F7F7"/>
</svg>
 